<?xml version="1.0" encoding="UTF-8"?>
<svg version="1.1" xmlns="http://www.w3.org/2000/svg" width="389" height="81">
<path d="M0 0 C76.56 0 153.12 0 232 0 C232 25.08 232 50.16 232 76 C155.44 76 78.88 76 0 76 C0 50.92 0 25.84 0 0 Z M12 11 C9.18329067 15.63206558 9.71195441 20.95260111 9.734375 26.19140625 C9.73246155 27.17366684 9.7305481 28.15592743 9.72857666 29.16795349 C9.72721836 31.23981992 9.73088995 33.31169495 9.73925781 35.38354492 C9.74997371 38.55471889 9.73934447 41.72532784 9.7265625 44.89648438 C9.72788393 46.91145958 9.73044599 48.92643444 9.734375 50.94140625 C9.73032654 51.8893959 9.72627808 52.83738556 9.72210693 53.81410217 C9.72841125 54.69859543 9.73471558 55.58308868 9.74121094 56.49438477 C9.74280212 57.26984146 9.74439331 58.04529816 9.74603271 58.84425354 C10.04032623 61.34230052 10.59263918 62.91362825 12 65 C15.41666667 66.08333333 15.41666667 66.08333333 19 66 C21.14667305 64.45346544 21.89229319 63.5193159 22.43237305 60.9152832 C22.45855713 60.13499756 22.48474121 59.35471191 22.51171875 58.55078125 C22.54716797 57.70322266 22.58261719 56.85566406 22.61914062 55.98242188 C22.65297852 54.66081055 22.65297852 54.66081055 22.6875 53.3125 C22.72166016 52.41982422 22.75582031 51.52714844 22.79101562 50.60742188 C22.87344467 48.40538879 22.93840047 46.20271418 23 44 C27.95 43.505 27.95 43.505 33 43 C32.97679687 44.25296875 32.95359375 45.5059375 32.9296875 46.796875 C32.91092573 48.4479107 32.89272597 50.09895285 32.875 51.75 C32.85824219 52.575 32.84148437 53.4 32.82421875 54.25 C32.81777344 55.04921875 32.81132812 55.8484375 32.8046875 56.671875 C32.79421387 57.4050293 32.78374023 58.13818359 32.77294922 58.89355469 C33.04100529 61.38042328 33.60365789 62.92391198 35 65 C38.41666667 66.08333333 38.41666667 66.08333333 42 66 C44.23052097 64.42619753 44.91010899 63.50873847 45.38768005 60.80592346 C45.39308304 59.95417038 45.39848602 59.1024173 45.40405273 58.22485352 C45.41673691 57.25697403 45.42942108 56.28909454 45.44248962 55.29188538 C45.43955399 54.24810226 45.43661835 53.20431915 45.43359375 52.12890625 C45.4388356 51.05503159 45.44407745 49.98115692 45.44947815 48.8747406 C45.45590447 46.60261907 45.45455351 44.3304643 45.44604492 42.05834961 C45.4375411 38.579313 45.46627971 35.10192092 45.49804688 31.62304688 C45.49965907 29.41666716 45.499081 27.21028453 45.49609375 25.00390625 C45.50732773 23.96214737 45.51856171 22.92038849 45.53013611 21.84706116 C45.5512804 16.23736189 45.5512804 16.23736189 43.16430664 11.31616211 C40.97699852 9.73776845 40.97699852 9.73776845 37.875 9.9375 C34.88508735 10.69294174 34.88508735 10.69294174 33.828125 13.046875 C32.76739707 16.82947082 32.78461583 20.42250452 32.875 24.3125 C32.88402344 25.05306641 32.89304687 25.79363281 32.90234375 26.55664062 C32.92575787 28.37123467 32.96162385 30.18566071 33 32 C29.37 32 25.74 32 22 32 C22.04640625 30.74703125 22.0928125 29.4940625 22.140625 28.203125 C22.17814813 26.55210719 22.21454771 24.90106358 22.25 23.25 C22.28351563 22.425 22.31703125 21.6 22.3515625 20.75 C22.45670941 15.75870909 22.45670941 15.75870909 20.171875 11.421875 C17.05072818 9.37853428 15.47690732 9.84103089 12 11 Z M64 13 C62.04243484 16.390901 61.15547573 20.27004327 60 24 C59.47527366 25.49050736 58.94773168 26.98002532 58.41796875 28.46875 C55.35859469 37.3941568 53.44783136 45.64855909 53.4375 55.125 C53.43524414 55.98407959 53.43298828 56.84315918 53.43066406 57.72827148 C53.46197249 60.38500748 53.46197249 60.38500748 54 64 C57.22143276 66.14762184 58.2595467 66.561068 62 66 C64.13325612 63.80087136 64.94441372 62.48915928 65.29296875 59.421875 C65.24076172 58.09929688 65.24076172 58.09929688 65.1875 56.75 C65.125625 55.1825 65.06375 53.615 65 52 C69.95 52.33 74.9 52.66 80 53 C80.16276042 55.79947917 80.32552083 58.59895833 80.48828125 61.3984375 C80.65714844 62.25695312 80.82601562 63.11546875 81 64 C84.21302289 66.14201526 85.26709281 66.65325876 89 66 C91.8240225 63.07859741 92.21175839 60.34753389 92.3125 56.4375 C91.76861462 42.08729333 88.12960659 24.61284611 81 12 C77.98156423 9.67812633 74.82338752 9.73301002 71.09765625 9.63671875 C68.18202673 10.14166017 66.36830806 11.2413554 64 13 Z M102.125 15.8125 C98.7693997 20.84590045 97.74721648 25.23949119 97.734375 31.24609375 C97.73179687 32.41333984 97.72921875 33.58058594 97.7265625 34.78320312 C97.73429687 35.98912109 97.74203125 37.19503906 97.75 38.4375 C97.74226563 39.63955078 97.73453125 40.84160156 97.7265625 42.08007812 C97.48709674 52.91258436 97.48709674 52.91258436 102.8125 61.8125 C109.0814363 66.11471119 114.51966946 66.83930777 122 66 C127.94357171 64.23597197 131.48890698 61.00064763 135 56 C136.17353189 52.47940432 136.20146402 49.693507 136 46 C134.22033317 43.80333697 134.22033317 43.80333697 131.90625 43.76953125 C131.1121875 43.78371094 130.318125 43.79789063 129.5 43.8125 C128.30890625 43.82216797 128.30890625 43.82216797 127.09375 43.83203125 C124.94163609 43.87324164 124.94163609 43.87324164 123 45 C122.38634292 47.05376006 122.38634292 47.05376006 122 49.4375 C121.21917808 53.78082192 121.21917808 53.78082192 119 56 C115.875 56.125 115.875 56.125 113 56 C111.68086229 49.9905949 111.85301996 43.99277839 111.875 37.875 C111.87113281 36.79089844 111.86726563 35.70679687 111.86328125 34.58984375 C111.86457031 33.54699219 111.86585938 32.50414062 111.8671875 31.4296875 C111.86831543 30.48335449 111.86944336 29.53702148 111.87060547 28.56201172 C111.98869886 26.22376264 112.33752434 24.23741781 113 22 C118.75 20.875 118.75 20.875 121 22 C121.5625 23.99609375 121.5625 23.99609375 122 26.4375 C122.62251162 30.13840398 122.62251162 30.13840398 125 33 C127.1398632 33.318384 127.1398632 33.318384 129.5 33.25 C130.2940625 33.25515625 131.088125 33.2603125 131.90625 33.265625 C134.21892751 33.18939909 134.21892751 33.18939909 136 31 C136.64664365 24.74911134 135.71944355 20.14561056 132 15 C123.59116122 8.16781849 109.85392538 7.20220593 102.125 15.8125 Z M145 13 C144.40259445 15.28643398 144.40259445 15.28643398 144.49829102 17.8828125 C144.48891006 18.87394043 144.47952911 19.86506836 144.46986389 20.88623047 C144.48109787 21.95502441 144.49233185 23.02381836 144.50390625 24.125 C144.50245102 25.22344238 144.50099579 26.32188477 144.49949646 27.45361328 C144.50115717 29.7770452 144.51273756 32.10048791 144.53344727 34.42382812 C144.56238749 37.986151 144.55406197 41.54698534 144.54101562 45.109375 C144.54725319 47.36459059 144.55564427 49.61980146 144.56640625 51.875 C144.56347061 52.94379395 144.56053497 54.01258789 144.55751038 55.11376953 C144.57019455 56.10489746 144.58287872 57.09602539 144.59594727 58.1171875 C144.60135025 58.98972168 144.60675323 59.86225586 144.61231995 60.76123047 C145.08219245 63.47464384 145.81498529 64.36791836 148 66 C150.5 66.5 150.5 66.5 153 66 C155.0716675 64.41160741 155.89736443 63.49486457 156.43237305 60.9152832 C156.45855713 60.13499756 156.48474121 59.35471191 156.51171875 58.55078125 C156.54716797 57.70322266 156.58261719 56.85566406 156.61914062 55.98242188 C156.65297852 54.66081055 156.65297852 54.66081055 156.6875 53.3125 C156.72166016 52.41982422 156.75582031 51.52714844 156.79101562 50.60742188 C156.87345648 48.40507329 156.94261551 46.20312062 157 44 C163.15234375 44.5859375 163.15234375 44.5859375 165 45 C166.71677427 48.43354855 166.28710102 52.60723077 166.34179688 56.4140625 C166.4844287 59.78415395 166.78983355 61.7167714 168.8203125 64.453125 C171.95937659 66.6808479 174.24572502 66.40955727 178 66 C178.99 65.34 179.98 64.68 181 64 C181.33343551 61.45792029 181.33343551 61.45792029 181 59 C180.67 58.67 180.34 58.34 180 58 C179.86744524 56.10593982 179.76916391 54.20943588 179.6875 52.3125 C179.28567023 46.84891129 178.44592259 44.17687587 175 40 C173.66015625 38.33203125 173.66015625 38.33203125 173 36 C174.00853436 33.2486475 175.06784224 30.78980119 176.375 28.1875 C178.99580761 22.94095846 180.64435713 19.0417957 180 13 C178.44202118 10.85217329 178.44202118 10.85217329 176 10 C173.43099674 9.76315895 173.43099674 9.76315895 171 11 C167.73437421 15.3171573 165.67614439 19.74792095 163.75 24.75 C163.481875 25.42160156 163.21375 26.09320312 162.9375 26.78515625 C161.48885388 30.28684621 161.48885388 30.28684621 161 34 C159.68 33.67 158.36 33.34 157 33 C156.98598145 32.11477661 156.98598145 32.11477661 156.97167969 31.21166992 C156.91797343 28.53609795 156.83433148 25.86227447 156.75 23.1875 C156.73582031 22.25873047 156.72164062 21.32996094 156.70703125 20.37304688 C156.67480469 19.48037109 156.64257812 18.58769531 156.609375 17.66796875 C156.58842773 16.84578857 156.56748047 16.0236084 156.54589844 15.17651367 C156.16424493 12.84373245 156.16424493 12.84373245 154.14941406 11.20825195 C150.2350996 9.00789504 148.02888808 10.03465292 145 13 Z M192 13 C188.5909861 17.64498339 188.35720357 21.4423155 188.54296875 27.0703125 C189.28707119 31.84019995 191.25282778 34.08629807 195 37 C198.08676055 39.11812866 201.1955581 41.15425252 204.390625 43.10546875 C207.00004175 45.00003031 207.99823415 45.98870384 209 49 C209.1875 52.1875 209.1875 52.1875 209 55 C208 56 208 56 206.15234375 56.09765625 C204.1015625 56.06510417 202.05078125 56.03255208 200 56 C199.87625 54.88625 199.7525 53.7725 199.625 52.625 C199.3534187 48.96896323 199.3534187 48.96896323 197 47 C193.5 46.66666667 193.5 46.66666667 190 47 C187.60276055 48.97508092 187.60276055 48.97508092 187.625 52.75 C187.75291944 57.1552256 189.04666413 59.65806731 192 63 C197.3404479 67.00533593 203.606679 66.76250617 210 66 C214.71915673 64.53231968 218.56039091 62.44869893 221 58 C222.62986311 53.11041068 222.5798 48.77563751 221 43.9375 C217.11793849 38.23572216 211.92199956 34.51383067 206.0625 31 C202.55619609 28.76103485 202.11937664 28.40455416 200.875 24.1875 C201 21 201 21 202 20 C204.32817964 19.63239269 206.6618385 19.29758419 209 19 C209.12375 20.6396875 209.12375 20.6396875 209.25 22.3125 C209.6752866 25.96204543 209.6752866 25.96204543 211.75 28 C214.63300141 29.28133396 216.04621561 29.01050518 219 28 C221.39031255 26.0232895 221.39031255 26.0232895 221.4375 22.25 C221.35541531 19.02524436 220.80544854 17.16945631 218.8125 14.625 C213.60654363 9.76610739 208.82555737 9.6146723 201.94921875 9.75 C197.87314326 10.09552163 195.48939519 10.84696893 192 13 Z " fill="#000000" transform="translate(153,2)"/>
<path d="M0 0 C1.43569336 -0.00773438 1.43569336 -0.00773438 2.90039062 -0.015625 C3.89361328 -0.00015625 4.88683594 0.0153125 5.91015625 0.03125 C6.89951172 0.01578125 7.88886719 0.0003125 8.90820312 -0.015625 C13.52460282 0.00921104 16.19999636 0.03947137 20.1640625 2.5625 C21.05931641 3.53703125 21.05931641 3.53703125 21.97265625 4.53125 C21.66015625 7.40625 21.66015625 7.40625 20.97265625 10.53125 C17.29178272 12.98516569 14.52910037 12.75927759 10.28515625 12.65625 C9.58326172 12.64722656 8.88136719 12.63820313 8.15820312 12.62890625 C6.429541 12.60538704 4.7010548 12.56951713 2.97265625 12.53125 C2.97265625 15.83125 2.97265625 19.13125 2.97265625 22.53125 C4.35453125 22.469375 5.73640625 22.4075 7.16015625 22.34375 C11.22310645 22.36297532 13.9296727 22.58642721 16.97265625 25.53125 C17.49657637 28.67477069 17.66351902 30.54659841 15.796875 33.20703125 C13.23910022 35.06374571 11.40683036 34.82892673 8.28515625 34.71875 C7.29128906 34.69167969 6.29742187 34.66460937 5.2734375 34.63671875 C4.51417969 34.60191406 3.75492188 34.56710938 2.97265625 34.53125 C2.9883667 35.09110596 3.00407715 35.65096191 3.02026367 36.2277832 C3.08265473 38.7663359 3.12165843 41.30472729 3.16015625 43.84375 C3.18529297 44.72482422 3.21042969 45.60589844 3.23632812 46.51367188 C3.25083008 47.78500977 3.25083008 47.78500977 3.265625 49.08203125 C3.28919067 50.25245972 3.28919067 50.25245972 3.31323242 51.4465332 C2.881859 54.08703331 2.09408709 54.94351245 -0.02734375 56.53125 C-3.02734375 56.96875 -3.02734375 56.96875 -6.02734375 56.53125 C-8.7742998 53.67639466 -9.4059978 51.64439955 -9.43139648 47.734375 C-9.44408066 46.7865918 -9.45676483 45.83880859 -9.46983337 44.86230469 C-9.46689774 43.84555664 -9.4639621 42.82880859 -9.4609375 41.78125 C-9.46880028 40.20585449 -9.46880028 40.20585449 -9.4768219 38.59863281 C-9.48324128 36.37956628 -9.48190621 34.16046572 -9.47338867 31.94140625 C-9.46487484 28.54365595 -9.493649 25.14758437 -9.52539062 21.75 C-9.52700261 19.5937505 -9.52642517 17.43749803 -9.5234375 15.28125 C-9.53467148 14.26450195 -9.54590546 13.24775391 -9.55747986 12.20019531 C-9.4885911 5.24017511 -9.4885911 5.24017511 -7.31054688 1.89257812 C-4.65138711 0.30709108 -3.08482582 0.01601764 0 0 Z " fill="#000000" transform="translate(13.02734375,11.46875)"/>
<path d="M0 0 C2.875 0.9375 2.875 0.9375 4.875 3.9375 C5.11550903 5.81681824 5.11550903 5.81681824 5.10205078 7.94995117 C5.10182419 9.1508564 5.10182419 9.1508564 5.10159302 10.37602234 C5.09127045 11.23548965 5.08094788 12.09495697 5.0703125 12.98046875 C5.0674826 13.8640657 5.06465271 14.74766266 5.06173706 15.65803528 C5.05054097 18.48049454 5.02543751 21.30263662 5 24.125 C4.98996946 26.03840688 4.98084374 27.95181873 4.97265625 29.86523438 C4.95060351 34.55611182 4.91607762 39.24675213 4.875 43.9375 C5.69484375 43.91429687 6.5146875 43.89109375 7.359375 43.8671875 C8.97585937 43.84011719 8.97585937 43.84011719 10.625 43.8125 C11.69234375 43.78929687 12.7596875 43.76609375 13.859375 43.7421875 C16.83435779 43.93486773 18.45074666 44.238257 20.875 45.9375 C21.875 48.8125 21.875 48.8125 21.875 51.9375 C20.56640625 54.10546875 20.56640625 54.10546875 17.875 55.9375 C14.17990675 56.51473806 10.54440347 56.44939808 6.8125 56.375 C5.30333008 56.38563477 5.30333008 56.38563477 3.76367188 56.39648438 C-3.60394885 56.3325037 -3.60394885 56.3325037 -5.74328613 54.71069336 C-7.53911295 52.40605688 -7.5106338 51.06600429 -7.52905273 48.16235352 C-7.54173691 47.19447403 -7.55442108 46.22659454 -7.56748962 45.22938538 C-7.56455399 44.18560226 -7.56161835 43.14181915 -7.55859375 42.06640625 C-7.5638356 40.99253159 -7.56907745 39.91865692 -7.57447815 38.8122406 C-7.58090447 36.54011907 -7.57955351 34.2679643 -7.57104492 31.99584961 C-7.5625411 28.516813 -7.59127971 25.03942092 -7.62304688 21.56054688 C-7.62465907 19.35416716 -7.624081 17.14778453 -7.62109375 14.94140625 C-7.63232773 13.89964737 -7.64356171 12.85788849 -7.65513611 11.78456116 C-7.5858554 4.61324555 -7.5858554 4.61324555 -5.28930664 1.24584961 C-3.125 -0.0625 -3.125 -0.0625 0 0 Z " fill="#000000" transform="translate(50.125,12.0625)"/>
<path d="M0 0 C3.375 0.9375 3.375 0.9375 5.375 3.9375 C5.64242554 6.09361267 5.64242554 6.09361267 5.66552734 8.62084961 C5.6846669 10.04263771 5.6846669 10.04263771 5.70419312 11.4931488 C5.70753159 13.0260128 5.70753159 13.0260128 5.7109375 14.58984375 C5.7175943 15.64152237 5.7242511 16.69320099 5.73110962 17.77674866 C5.74123846 20.00178273 5.74592657 22.22684719 5.74560547 24.4519043 C5.74997871 27.85841835 5.78629727 31.26363713 5.82421875 34.66992188 C5.83008677 36.83072473 5.83405626 38.99153375 5.8359375 41.15234375 C5.85030853 42.17222885 5.86467957 43.19211395 5.87948608 44.24290466 C5.83411429 51.25529671 5.83411429 51.25529671 3.57275391 54.61547852 C1.375 55.9375 1.375 55.9375 -2.25 55.875 C-5.625 54.9375 -5.625 54.9375 -7.625 51.9375 C-7.89242554 49.78138733 -7.89242554 49.78138733 -7.91552734 47.25415039 C-7.92828705 46.30629166 -7.94104675 45.35843292 -7.95419312 44.3818512 C-7.95641876 43.35994186 -7.95864441 42.33803253 -7.9609375 41.28515625 C-7.9675943 40.23347763 -7.9742511 39.18179901 -7.98110962 38.09825134 C-7.99123846 35.87321727 -7.99592657 33.64815281 -7.99560547 31.4230957 C-7.99997871 28.01658165 -8.03629727 24.61136287 -8.07421875 21.20507812 C-8.08008677 19.04427527 -8.08405626 16.88346625 -8.0859375 14.72265625 C-8.10030853 13.70277115 -8.11467957 12.68288605 -8.12948608 11.63209534 C-8.08411429 4.61970329 -8.08411429 4.61970329 -5.82275391 1.25952148 C-3.625 -0.0625 -3.625 -0.0625 0 0 Z " fill="#000000" transform="translate(88.625,12.0625)"/>
<path d="M0 0 C0.78246094 -0.020625 1.56492187 -0.04125 2.37109375 -0.0625 C9.20490068 -0.10783205 14.44537884 1.33937751 20.25 5.125 C23.96569619 8.84069619 24.50333687 12.06929968 24.6875 17.1875 C24.55176878 22.89669444 23.21114022 26.46348519 19.0625 30.5 C12.95794115 34.47506158 7.43844763 34.50126889 0.375 34.25 C0.39820312 35.26320312 0.42140625 36.27640625 0.4453125 37.3203125 C0.4640841 38.67186758 0.4822828 40.02343069 0.5 41.375 C0.52513672 42.37273438 0.52513672 42.37273438 0.55078125 43.390625 C0.59347278 47.74516056 -0.02503783 51.20600114 -1.625 55.25 C-8.25 56.5 -8.25 56.5 -11.625 54.25 C-12.56613051 51.42660846 -12.75630163 49.67487791 -12.77026367 46.75024414 C-12.77664352 45.84242691 -12.78302338 44.93460968 -12.78959656 43.99928284 C-12.79070938 43.02112106 -12.7918222 42.04295929 -12.79296875 41.03515625 C-12.79629715 40.02786972 -12.79962555 39.02058319 -12.80305481 37.98277283 C-12.80811866 35.8518825 -12.8104633 33.72098423 -12.81030273 31.59008789 C-12.81248907 28.32880607 -12.83065021 25.06786257 -12.84960938 21.80664062 C-12.85254342 19.73698032 -12.85452814 17.66731842 -12.85546875 15.59765625 C-12.86265427 14.62151871 -12.86983978 13.64538116 -12.87724304 12.6396637 C-12.87416641 11.72869431 -12.87108978 10.81772491 -12.86791992 9.87915039 C-12.86934494 9.07989639 -12.87076996 8.2806424 -12.87223816 7.45716858 C-12.59323615 4.96643464 -11.95088693 3.36839663 -10.625 1.25 C-7.30804452 -0.40847774 -3.64296629 0.02331498 0 0 Z M0.375 10.25 C0.375 14.87 0.375 19.49 0.375 24.25 C5.94952814 24.76078489 5.94952814 24.76078489 10.875 22.625 C12.83062482 19.52859404 12.97524477 17.85146865 12.375 14.25 C11.00216577 11.70997987 11.00216577 11.70997987 8.375 10.25 C5.61650058 9.92361266 3.17015088 10.06365661 0.375 10.25 Z " fill="#000000" transform="translate(118.625,11.75)"/>
<path d="M0 0 C2 1 2 1 2.68603516 2.73413086 C2.98453369 3.83833374 2.98453369 3.83833374 3.2890625 4.96484375 C3.61777344 6.16463867 3.61777344 6.16463867 3.953125 7.38867188 C4.17484375 8.22978516 4.3965625 9.07089844 4.625 9.9375 C4.85445312 10.77474609 5.08390625 11.61199219 5.3203125 12.47460938 C7 18.68845331 7 18.68845331 7 21 C3.04 21 -0.92 21 -5 21 C-4.42351925 13.64987044 -2.28953836 6.98575424 0 0 Z " fill="#000000" transform="translate(225,23)"/>
</svg>
