<?xml version="1.0" encoding="UTF-8"?>
<svg version="1.1" xmlns="http://www.w3.org/2000/svg" width="348" height="214">
<path d="M0,0 L348,0 L348,214 L0,214 Z M120,3 L120,4 L94,4 L94,28 L95,28 L95,74 L96,74 L96,109 L109,109 L109,108 L125,108 L125,107 L139,107 L139,106 L153,106 L153,105 L161,105 L161,104 L162,104 L162,103 L161,103 L161,91 L160,91 L160,79 L129,79 L129,78 L124,78 L124,59 L125,59 L125,41 L126,41 L126,30 L127,30 L127,22 L128,22 L128,14 L129,14 L129,7 L130,7 L130,3 Z M274,5 L274,6 L261,6 L261,7 L250,7 L250,8 L238,8 L238,9 L232,9 L232,11 L233,11 L233,46 L234,46 L234,106 L235,106 L235,107 L238,107 L238,106 L255,106 L255,107 L260,107 L260,106 L262,106 L262,104 L263,104 L263,78 L267,78 L267,77 L278,77 L278,76 L288,76 L288,75 L297,75 L297,74 L305,74 L305,73 L311,73 L311,72 L317,72 L317,71 L321,71 L321,70 L323,70 L323,69 L324,69 L324,68 L325,68 L325,67 L326,67 L326,64 L327,64 L327,61 L328,61 L328,58 L329,58 L329,52 L330,52 L330,41 L331,41 L331,37 L330,37 L330,24 L329,24 L329,18 L328,18 L328,15 L327,15 L327,13 L326,13 L326,12 L325,12 L325,11 L322,11 L322,10 L319,10 L319,9 L316,9 L316,8 L311,8 L311,7 L305,7 L305,6 L297,6 L297,5 Z M30,7 L30,8 L11,8 L11,111 L10,111 L10,112 L27,112 L27,111 L47,111 L47,94 L46,94 L46,79 L45,79 L45,71 L44,71 L44,70 L45,70 L45,69 L50,69 L50,68 L58,68 L58,67 L64,67 L64,66 L69,66 L69,63 L68,63 L68,59 L67,59 L67,56 L66,56 L66,52 L65,52 L65,51 L50,51 L50,50 L43,50 L43,49 L42,49 L42,38 L53,38 L53,37 L75,37 L75,36 L88,36 L88,35 L89,35 L89,32 L88,32 L88,20 L87,20 L87,11 L86,11 L86,9 L79,9 L79,8 L55,8 L55,7 Z M214,7 L214,8 L197,8 L197,9 L178,9 L178,10 L160,10 L160,30 L161,30 L161,34 L169,34 L169,35 L174,35 L174,45 L175,45 L175,59 L176,59 L176,74 L177,74 L177,86 L168,86 L168,91 L169,91 L169,113 L192,113 L192,112 L218,112 L218,101 L217,101 L217,88 L218,88 L218,82 L204,82 L204,71 L203,71 L203,49 L204,49 L204,40 L216,40 L216,41 L218,41 L218,40 L219,40 L219,10 L220,10 L220,8 L219,8 L219,7 Z M284,119 L284,120 L278,120 L278,121 L275,121 L275,122 L272,122 L272,123 L270,123 L270,124 L268,124 L268,125 L267,125 L267,126 L266,126 L266,127 L265,127 L265,128 L264,128 L264,129 L263,129 L263,130 L262,130 L262,133 L261,133 L261,136 L260,136 L260,149 L261,149 L261,153 L262,153 L262,156 L263,156 L263,157 L264,157 L264,159 L265,159 L265,160 L266,160 L266,161 L268,161 L268,162 L273,162 L273,163 L286,163 L286,164 L304,164 L304,165 L306,165 L306,166 L307,166 L307,172 L304,172 L304,173 L292,173 L292,172 L261,172 L261,174 L262,174 L262,186 L261,186 L261,184 L260,184 L260,183 L259,183 L259,181 L258,181 L258,180 L257,180 L257,179 L256,179 L256,177 L255,177 L255,176 L254,176 L254,174 L253,174 L253,173 L252,173 L252,172 L251,172 L251,170 L250,170 L250,169 L249,169 L249,167 L248,167 L248,166 L247,166 L247,164 L246,164 L246,163 L245,163 L245,162 L244,162 L244,160 L243,160 L243,159 L242,159 L242,157 L241,157 L241,156 L240,156 L240,154 L239,154 L239,153 L238,153 L238,151 L237,151 L237,150 L238,150 L238,149 L239,149 L239,148 L240,148 L240,147 L241,147 L241,146 L242,146 L242,145 L243,145 L243,144 L244,144 L244,143 L245,143 L245,142 L246,142 L246,141 L247,141 L247,140 L248,140 L248,139 L249,139 L249,138 L250,138 L250,137 L251,137 L251,136 L252,136 L252,135 L253,135 L253,134 L254,134 L254,133 L255,133 L255,132 L256,132 L256,131 L257,131 L257,123 L256,123 L256,124 L243,124 L243,125 L239,125 L239,126 L238,126 L238,127 L237,127 L237,128 L236,128 L236,129 L235,129 L235,130 L234,130 L234,131 L233,131 L233,133 L232,133 L232,134 L231,134 L231,135 L230,135 L230,136 L229,136 L229,137 L228,137 L228,139 L227,139 L227,140 L226,140 L226,141 L225,141 L225,142 L224,142 L224,143 L223,143 L223,144 L222,144 L222,145 L221,145 L221,125 L211,125 L211,124 L194,124 L194,146 L195,146 L195,160 L196,160 L196,170 L197,170 L197,179 L198,179 L198,187 L199,187 L199,193 L203,193 L203,192 L212,192 L212,193 L215,193 L215,187 L216,187 L216,172 L217,172 L217,171 L218,171 L218,170 L219,170 L219,169 L220,169 L220,168 L221,168 L221,167 L222,167 L222,166 L223,166 L223,165 L224,165 L224,164 L225,164 L225,163 L227,163 L227,165 L228,165 L228,166 L229,166 L229,167 L230,167 L230,169 L231,169 L231,170 L232,170 L232,172 L233,172 L233,173 L234,173 L234,175 L235,175 L235,176 L236,176 L236,178 L237,178 L237,179 L238,179 L238,181 L239,181 L239,182 L240,182 L240,184 L241,184 L241,185 L242,185 L242,187 L243,187 L243,188 L244,188 L244,190 L245,190 L245,191 L246,191 L246,193 L247,193 L247,194 L248,194 L248,195 L253,195 L253,194 L258,194 L258,193 L263,193 L263,192 L266,192 L266,191 L308,191 L308,190 L315,190 L315,189 L319,189 L319,188 L322,188 L322,187 L324,187 L324,186 L326,186 L326,185 L327,185 L327,184 L328,184 L328,183 L329,183 L329,181 L330,181 L330,170 L329,170 L329,168 L328,168 L328,166 L327,166 L327,164 L326,164 L326,163 L325,163 L325,162 L324,162 L324,161 L323,161 L323,160 L322,160 L322,159 L321,159 L321,158 L319,158 L319,157 L316,157 L316,156 L311,156 L311,155 L305,155 L305,154 L295,154 L295,153 L284,153 L284,152 L277,152 L277,150 L276,150 L276,148 L277,148 L277,145 L281,145 L281,144 L316,144 L316,143 L323,143 L323,122 L321,122 L321,121 L316,121 L316,120 L309,120 L309,119 Z M155,122 L155,123 L150,123 L150,124 L147,124 L147,125 L144,125 L144,126 L143,126 L143,127 L141,127 L141,128 L140,128 L140,130 L139,130 L139,131 L138,131 L138,132 L137,132 L137,134 L136,134 L136,136 L135,136 L135,139 L134,139 L134,142 L133,142 L133,146 L132,146 L132,151 L131,151 L131,167 L132,167 L132,173 L133,173 L133,176 L134,176 L134,178 L135,178 L135,180 L136,180 L136,182 L137,182 L137,183 L138,183 L138,184 L139,184 L139,185 L140,185 L140,186 L141,186 L141,187 L143,187 L143,188 L148,188 L148,189 L170,189 L170,188 L178,188 L178,187 L184,187 L184,186 L190,186 L190,185 L193,185 L193,184 L194,184 L194,170 L192,170 L192,171 L186,171 L186,172 L181,172 L181,173 L174,173 L174,174 L166,174 L166,175 L150,175 L150,172 L149,172 L149,163 L148,163 L148,153 L149,153 L149,148 L150,148 L150,147 L152,147 L152,146 L156,146 L156,145 L161,145 L161,144 L180,144 L180,145 L185,145 L185,146 L188,146 L188,124 L185,124 L185,123 L180,123 L180,122 Z M48,123 L48,129 L47,129 L47,153 L35,153 L35,154 L29,154 L29,141 L28,141 L28,127 L27,127 L27,126 L12,126 L12,153 L11,153 L11,191 L10,191 L10,193 L15,193 L15,194 L32,194 L32,193 L33,193 L33,191 L32,191 L32,176 L31,176 L31,170 L32,170 L32,169 L49,169 L49,192 L68,192 L68,127 L67,127 L67,124 L60,124 L60,123 Z M98,123 L98,124 L88,124 L88,125 L81,125 L81,126 L79,126 L79,130 L78,130 L78,142 L77,142 L77,153 L76,153 L76,164 L75,164 L75,176 L74,176 L74,189 L87,189 L87,188 L88,188 L88,186 L89,186 L89,181 L90,181 L90,177 L91,177 L91,176 L111,176 L111,175 L113,175 L113,176 L114,176 L114,179 L115,179 L115,182 L116,182 L116,185 L117,185 L117,188 L118,188 L118,192 L119,192 L119,194 L124,194 L124,193 L130,193 L130,192 L133,192 L133,187 L132,187 L132,182 L131,182 L131,177 L130,177 L130,171 L129,171 L129,165 L128,165 L128,159 L127,159 L127,152 L126,152 L126,146 L125,146 L125,139 L124,139 L124,133 L123,133 L123,126 L122,126 L122,123 Z " fill="#000000" transform="translate(0,0)"/>
<path d="M0,0 L12,0 L12,1 L17,1 L17,2 L18,2 L18,3 L19,3 L19,4 L20,4 L20,9 L21,9 L21,19 L20,19 L20,24 L19,24 L19,25 L18,25 L18,26 L17,26 L17,27 L16,27 L16,28 L13,28 L13,29 L8,29 L8,30 L0,30 L0,31 L-13,31 L-13,5 L-14,5 L-14,2 L-10,2 L-10,1 L0,1 Z " fill="#000000" transform="translate(271,24)"/>
<path d="M0,0 L8,0 L8,1 L10,1 L10,2 L11,2 L11,6 L12,6 L12,11 L13,11 L13,16 L-4,16 L-4,12 L-3,12 L-3,7 L-2,7 L-2,3 L-1,3 L-1,1 L0,1 Z " fill="#000000" transform="translate(97,147)"/>
</svg>
