<svg version="1.1" xmlns="http://www.w3.org/2000/svg" fill="none" viewBox="9 2 319 192">
<path d="M0,0 L7,0 L7,3 L6,3 L6,10 L5,10 L5,17 L4,17 L4,26 L3,26 L3,36 L2,36 L2,51 L1,51 L1,76 L36,76 L36,78 L37,78 L37,90 L38,90 L38,102 L27,102 L27,103 L13,103 L13,104 L-1,104 L-1,105 L-17,105 L-17,106 L-26,106 L-26,105 L-27,105 L-27,58 L-28,58 L-28,18 L-29,18 L-29,2 L-20,2 L-20,1 L0,1 Z " fill="#0ff0b0" transform="translate(121,2)"/>
<path d="M0,0 L15,0 L15,1 L24,1 L24,2 L31,2 L31,3 L35,3 L35,4 L39,4 L39,5 L42,5 L42,6 L44,6 L44,7 L46,7 L46,8 L47,8 L47,10 L48,10 L48,14 L49,14 L49,20 L50,20 L50,46 L49,46 L49,52 L48,52 L48,56 L47,56 L47,59 L46,59 L46,61 L45,61 L45,63 L44,63 L44,64 L43,64 L43,65 L41,65 L41,66 L37,66 L37,67 L31,67 L31,68 L24,68 L24,69 L16,69 L16,70 L7,70 L7,71 L-3,71 L-3,72 L-15,72 L-15,73 L-17,73 L-17,93 L-18,93 L-18,101 L-44,101 L-44,102 L-45,102 L-45,64 L-46,64 L-46,34 L-47,34 L-47,4 L-40,4 L-40,3 L-28,3 L-28,2 L-17,2 L-17,1 L0,1 Z M-11,19 L-11,20 L-20,20 L-20,21 L-23,21 L-23,27 L-22,27 L-22,50 L-7,50 L-7,49 L0,49 L0,48 L5,48 L5,47 L7,47 L7,46 L8,46 L8,45 L9,45 L9,44 L10,44 L10,43 L11,43 L11,40 L12,40 L12,27 L11,27 L11,23 L10,23 L10,21 L8,21 L8,20 L5,20 L5,19 Z " fill="#0ff0b0" transform="translate(278,4)"/>
<path d="M0,0 L62,0 L62,1 L74,1 L74,5 L75,5 L75,13 L76,13 L76,28 L57,28 L57,29 L38,29 L38,30 L30,30 L30,31 L29,31 L29,32 L30,32 L30,42 L35,42 L35,43 L50,43 L50,44 L54,44 L54,48 L55,48 L55,51 L56,51 L56,55 L57,55 L57,58 L51,58 L51,59 L45,59 L45,60 L38,60 L38,61 L33,61 L33,62 L32,62 L32,64 L33,64 L33,74 L34,74 L34,92 L35,92 L35,103 L8,103 L8,104 L-1,104 L-1,73 L0,73 Z " fill="#0ff0b0" transform="translate(10,7)"/>
<path d="M0,0 L2,0 L2,33 L-14,33 L-14,74 L-13,74 L-13,75 L0,75 L0,99 L1,99 L1,105 L-39,105 L-39,106 L-48,106 L-48,80 L-49,80 L-49,79 L-40,79 L-40,64 L-41,64 L-41,49 L-42,49 L-42,36 L-43,36 L-43,28 L-47,28 L-47,27 L-54,27 L-54,26 L-56,26 L-56,17 L-57,17 L-57,3 L-35,3 L-35,2 L-16,2 L-16,1 L0,1 Z " fill="#0ff0b0" transform="translate(215,6)"/>
<path d="M0,0 L21,0 L21,1 L29,1 L29,2 L35,2 L35,3 L36,3 L36,18 L37,18 L37,24 L17,24 L17,25 L-7,25 L-7,26 L-9,26 L-9,27 L-10,27 L-10,32 L-9,32 L-9,33 L-3,33 L-3,34 L7,34 L7,35 L17,35 L17,36 L24,36 L24,37 L30,37 L30,38 L33,38 L33,39 L35,39 L35,40 L36,40 L36,41 L37,41 L37,42 L38,42 L38,43 L39,43 L39,44 L40,44 L40,45 L41,45 L41,47 L42,47 L42,49 L43,49 L43,52 L44,52 L44,62 L43,62 L43,64 L42,64 L42,65 L41,65 L41,66 L40,66 L40,67 L38,67 L38,68 L36,68 L36,69 L33,69 L33,70 L29,70 L29,71 L20,71 L20,72 L-20,72 L-20,73 L-24,73 L-24,74 L-28,74 L-28,75 L-34,75 L-34,76 L-38,76 L-38,75 L-39,75 L-39,74 L-40,74 L-40,72 L-41,72 L-41,71 L-42,71 L-42,69 L-43,69 L-43,68 L-44,68 L-44,66 L-45,66 L-45,65 L-46,65 L-46,63 L-47,63 L-47,62 L-48,62 L-48,60 L-49,60 L-49,59 L-50,59 L-50,57 L-51,57 L-51,56 L-52,56 L-52,54 L-53,54 L-53,53 L-54,53 L-54,51 L-55,51 L-55,50 L-56,50 L-56,48 L-57,48 L-57,47 L-58,47 L-58,45 L-59,45 L-59,44 L-61,44 L-61,45 L-62,45 L-62,46 L-63,46 L-63,47 L-64,47 L-64,48 L-65,48 L-65,49 L-66,49 L-66,50 L-67,50 L-67,51 L-68,51 L-68,52 L-69,52 L-69,53 L-70,53 L-70,63 L-71,63 L-71,73 L-85,73 L-85,74 L-87,74 L-87,67 L-88,67 L-88,58 L-89,58 L-89,49 L-90,49 L-90,38 L-91,38 L-91,23 L-92,23 L-92,5 L-91,5 L-91,6 L-65,6 L-65,23 L-66,23 L-66,27 L-65,27 L-65,26 L-64,26 L-64,25 L-63,25 L-63,24 L-62,24 L-62,23 L-61,23 L-61,22 L-60,22 L-60,21 L-59,21 L-59,20 L-58,20 L-58,18 L-57,18 L-57,17 L-56,17 L-56,16 L-55,16 L-55,15 L-54,15 L-54,14 L-53,14 L-53,13 L-52,13 L-52,11 L-51,11 L-51,10 L-50,10 L-50,9 L-49,9 L-49,8 L-48,8 L-48,7 L-47,7 L-47,6 L-41,6 L-41,5 L-29,5 L-29,12 L-30,12 L-30,13 L-31,13 L-31,14 L-32,14 L-32,15 L-33,15 L-33,16 L-34,16 L-34,17 L-35,17 L-35,18 L-36,18 L-36,19 L-37,19 L-37,20 L-38,20 L-38,21 L-39,21 L-39,22 L-40,22 L-40,23 L-41,23 L-41,24 L-42,24 L-42,25 L-43,25 L-43,26 L-44,26 L-44,27 L-45,27 L-45,28 L-46,28 L-46,29 L-47,29 L-47,30 L-48,30 L-48,31 L-49,31 L-49,32 L-48,32 L-48,34 L-47,34 L-47,35 L-46,35 L-46,37 L-45,37 L-45,38 L-44,38 L-44,40 L-43,40 L-43,41 L-42,41 L-42,43 L-41,43 L-41,44 L-40,44 L-40,46 L-39,46 L-39,47 L-38,47 L-38,48 L-37,48 L-37,50 L-36,50 L-36,51 L-35,51 L-35,53 L-34,53 L-34,54 L-33,54 L-33,56 L-32,56 L-32,57 L-31,57 L-31,58 L-30,58 L-30,60 L-29,60 L-29,61 L-28,61 L-28,62 L-27,62 L-27,64 L-26,64 L-26,65 L-25,65 L-25,67 L-24,67 L-24,53 L-1,53 L-1,54 L19,54 L19,53 L21,53 L21,47 L20,47 L20,46 L19,46 L19,45 L5,45 L5,44 L-11,44 L-11,43 L-17,43 L-17,42 L-20,42 L-20,41 L-21,41 L-21,40 L-22,40 L-22,38 L-23,38 L-23,36 L-24,36 L-24,34 L-25,34 L-25,30 L-26,30 L-26,17 L-25,17 L-25,14 L-24,14 L-24,12 L-23,12 L-23,10 L-22,10 L-22,9 L-21,9 L-21,8 L-20,8 L-20,7 L-19,7 L-19,6 L-18,6 L-18,5 L-16,5 L-16,4 L-14,4 L-14,3 L-11,3 L-11,2 L-7,2 L-7,1 L0,1 Z " fill="#0ff0b0" transform="translate(284,118)"/>
<path d="M0,0 L23,0 L23,1 L29,1 L29,2 L32,2 L32,24 L29,24 L29,23 L25,23 L25,22 L15,22 L15,21 L14,21 L14,22 L4,22 L4,23 L-1,23 L-1,24 L-4,24 L-4,25 L-6,25 L-6,26 L-7,26 L-7,29 L-8,29 L-8,44 L-7,44 L-7,51 L-6,51 L-6,53 L12,53 L12,52 L19,52 L19,51 L25,51 L25,50 L31,50 L31,49 L37,49 L37,48 L38,48 L38,53 L37,53 L37,63 L33,63 L33,64 L27,64 L27,65 L21,65 L21,66 L12,66 L12,67 L-6,67 L-6,66 L-13,66 L-13,65 L-15,65 L-15,64 L-16,64 L-16,63 L-17,63 L-17,62 L-18,62 L-18,61 L-19,61 L-19,60 L-20,60 L-20,58 L-21,58 L-21,56 L-22,56 L-22,54 L-23,54 L-23,50 L-24,50 L-24,44 L-25,44 L-25,31 L-24,31 L-24,24 L-23,24 L-23,20 L-22,20 L-22,17 L-21,17 L-21,15 L-20,15 L-20,12 L-19,12 L-19,11 L-18,11 L-18,9 L-17,9 L-17,8 L-16,8 L-16,6 L-15,6 L-15,5 L-13,5 L-13,4 L-11,4 L-11,3 L-9,3 L-9,2 L-5,2 L-5,1 L0,1 Z " fill="#0ff0b0" transform="translate(154,121)"/>
<path d="M0,0 L19,0 L19,15 L20,15 L20,68 L1,68 L1,45 L0,45 L0,44 L-1,44 L-1,45 L-16,45 L-16,46 L-17,46 L-17,57 L-16,57 L-16,69 L-37,69 L-37,40 L-36,40 L-36,2 L-21,2 L-21,5 L-20,5 L-20,21 L-19,21 L-19,30 L-1,30 L-1,13 L0,13 Z " fill="#0ff0b0" transform="translate(46,123)"/>
<path d="M0,0 L7,0 L7,1 L18,1 L18,4 L19,4 L19,10 L20,10 L20,17 L21,17 L21,24 L22,24 L22,30 L23,30 L23,36 L24,36 L24,43 L25,43 L25,49 L26,49 L26,55 L27,55 L27,60 L28,60 L28,65 L29,65 L29,69 L25,69 L25,70 L19,70 L19,71 L15,71 L15,69 L14,69 L14,65 L13,65 L13,62 L12,62 L12,59 L11,59 L11,56 L10,56 L10,53 L9,53 L9,52 L0,52 L0,53 L-13,53 L-13,54 L-14,54 L-14,58 L-15,58 L-15,62 L-16,62 L-16,65 L-30,65 L-30,55 L-29,55 L-29,44 L-28,44 L-28,32 L-27,32 L-27,21 L-26,21 L-26,9 L-25,9 L-25,3 L-22,3 L-22,2 L-15,2 L-15,1 L0,1 Z M-7,24 L-7,25 L-8,25 L-8,27 L-9,27 L-9,31 L-10,31 L-10,35 L-11,35 L-11,40 L6,40 L6,35 L5,35 L5,30 L4,30 L4,26 L3,26 L3,25 L2,25 L2,24 Z " fill="#0ff0b0" transform="translate(102,122)"/>
</svg>