<?xml version="1.0" encoding="UTF-8"?>
<svg version="1.1" xmlns="http://www.w3.org/2000/svg" width="305" height="71">
<path d="M0,0 L305,0 L305,71 L0,71 Z M4,4 L4,67 L117,67 L117,7 L118,7 L118,5 L117,5 L117,4 Z M125,4 L125,7 L301,7 L301,4 Z M220,14 L220,15 L215,15 L215,16 L213,16 L213,17 L211,17 L211,18 L210,18 L210,19 L209,19 L209,20 L208,20 L208,21 L207,21 L207,22 L206,22 L206,23 L205,23 L205,25 L204,25 L204,26 L203,26 L203,28 L202,28 L202,33 L201,33 L201,40 L202,40 L202,43 L203,43 L203,45 L204,45 L204,47 L205,47 L205,49 L206,49 L206,50 L207,50 L207,51 L208,51 L208,52 L209,52 L209,53 L211,53 L211,54 L212,54 L212,55 L214,55 L214,56 L217,56 L217,57 L229,57 L229,56 L231,56 L231,55 L233,55 L233,54 L235,54 L235,53 L236,53 L236,52 L237,52 L237,51 L238,51 L238,50 L237,50 L237,49 L236,49 L236,48 L235,48 L235,47 L234,47 L234,46 L232,46 L232,47 L231,47 L231,48 L229,48 L229,49 L226,49 L226,50 L220,50 L220,49 L217,49 L217,48 L215,48 L215,47 L214,47 L214,46 L213,46 L213,45 L212,45 L212,44 L211,44 L211,43 L210,43 L210,40 L209,40 L209,31 L210,31 L210,29 L211,29 L211,27 L212,27 L212,26 L213,26 L213,25 L214,25 L214,24 L216,24 L216,23 L218,23 L218,22 L227,22 L227,23 L229,23 L229,24 L231,24 L231,25 L232,25 L232,26 L233,26 L233,25 L234,25 L234,24 L235,24 L235,23 L236,23 L236,22 L237,22 L237,21 L238,21 L238,20 L237,20 L237,19 L236,19 L236,18 L234,18 L234,17 L232,17 L232,16 L230,16 L230,15 L226,15 L226,14 Z M282,14 L282,15 L278,15 L278,16 L277,16 L277,17 L275,17 L275,18 L274,18 L274,20 L273,20 L273,21 L272,21 L272,24 L271,24 L271,28 L272,28 L272,31 L273,31 L273,33 L274,33 L274,34 L275,34 L275,35 L276,35 L276,36 L278,36 L278,37 L279,37 L279,38 L282,38 L282,39 L285,39 L285,40 L288,40 L288,41 L291,41 L291,42 L292,42 L292,43 L293,43 L293,45 L294,45 L294,47 L293,47 L293,49 L291,49 L291,50 L288,50 L288,51 L285,51 L285,50 L282,50 L282,49 L280,49 L280,48 L278,48 L278,47 L277,47 L277,48 L276,48 L276,49 L275,49 L275,50 L274,50 L274,51 L273,51 L273,53 L275,53 L275,54 L276,54 L276,55 L279,55 L279,56 L281,56 L281,57 L293,57 L293,56 L295,56 L295,55 L297,55 L297,54 L298,54 L298,53 L299,53 L299,52 L300,52 L300,49 L301,49 L301,41 L300,41 L300,39 L299,39 L299,38 L298,38 L298,37 L297,37 L297,36 L295,36 L295,35 L294,35 L294,34 L292,34 L292,33 L289,33 L289,32 L286,32 L286,31 L283,31 L283,30 L281,30 L281,29 L280,29 L280,28 L279,28 L279,24 L280,24 L280,23 L281,23 L281,22 L283,22 L283,21 L289,21 L289,22 L291,22 L291,23 L293,23 L293,24 L295,24 L295,23 L296,23 L296,22 L297,22 L297,21 L298,21 L298,20 L299,20 L299,19 L298,19 L298,18 L297,18 L297,17 L295,17 L295,16 L293,16 L293,15 L288,15 L288,14 Z M125,15 L125,23 L124,23 L124,24 L125,24 L125,27 L124,27 L124,28 L125,28 L125,36 L124,36 L124,41 L125,41 L125,47 L124,47 L124,49 L125,49 L125,54 L124,54 L124,55 L125,55 L125,56 L132,56 L132,39 L133,39 L133,40 L135,40 L135,39 L139,39 L139,40 L141,40 L141,39 L143,39 L143,40 L145,40 L145,39 L149,39 L149,56 L156,56 L156,15 L149,15 L149,32 L132,32 L132,15 Z M177,15 L177,16 L176,16 L176,18 L175,18 L175,21 L174,21 L174,23 L173,23 L173,25 L172,25 L172,27 L171,27 L171,29 L170,29 L170,32 L169,32 L169,34 L168,34 L168,36 L167,36 L167,38 L166,38 L166,41 L165,41 L165,43 L164,43 L164,45 L163,45 L163,47 L162,47 L162,49 L161,49 L161,52 L160,52 L160,54 L159,54 L159,56 L167,56 L167,54 L168,54 L168,52 L169,52 L169,50 L170,50 L170,49 L186,49 L186,47 L185,47 L185,44 L184,44 L184,42 L173,42 L173,41 L174,41 L174,39 L175,39 L175,37 L176,37 L176,34 L177,34 L177,32 L178,32 L178,30 L179,30 L179,28 L180,28 L180,26 L182,26 L182,28 L183,28 L183,30 L184,30 L184,32 L185,32 L185,34 L186,34 L186,37 L187,37 L187,39 L188,39 L188,41 L189,41 L189,43 L190,43 L190,45 L191,45 L191,48 L192,48 L192,50 L193,50 L193,52 L194,52 L194,54 L195,54 L195,56 L199,56 L199,57 L203,57 L203,54 L202,54 L202,52 L201,52 L201,50 L200,50 L200,47 L199,47 L199,45 L198,45 L198,43 L197,43 L197,41 L196,41 L196,38 L195,38 L195,36 L194,36 L194,34 L193,34 L193,32 L192,32 L192,30 L191,30 L191,27 L190,27 L190,25 L189,25 L189,23 L188,23 L188,21 L187,21 L187,19 L186,19 L186,16 L185,16 L185,15 Z M241,15 L241,16 L240,16 L240,56 L241,56 L241,57 L242,57 L242,56 L245,56 L245,57 L247,57 L247,56 L248,56 L248,42 L249,42 L249,43 L250,43 L250,44 L251,44 L251,45 L252,45 L252,46 L253,46 L253,47 L254,47 L254,48 L255,48 L255,49 L256,49 L256,50 L257,50 L257,51 L258,51 L258,52 L259,52 L259,53 L260,53 L260,54 L261,54 L261,55 L262,55 L262,56 L263,56 L263,57 L273,57 L273,56 L272,56 L272,55 L271,55 L271,54 L270,54 L270,53 L269,53 L269,52 L268,52 L268,51 L267,51 L267,50 L266,50 L266,49 L265,49 L265,48 L264,48 L264,47 L263,47 L263,46 L262,46 L262,45 L261,45 L261,44 L260,44 L260,43 L259,43 L259,42 L258,42 L258,41 L257,41 L257,40 L256,40 L256,39 L255,39 L255,38 L254,38 L254,37 L253,37 L253,35 L254,35 L254,34 L255,34 L255,33 L256,33 L256,32 L257,32 L257,31 L258,31 L258,30 L259,30 L259,29 L260,29 L260,28 L261,28 L261,27 L262,27 L262,26 L263,26 L263,25 L264,25 L264,24 L265,24 L265,23 L266,23 L266,22 L267,22 L267,21 L268,21 L268,20 L269,20 L269,19 L270,19 L270,18 L271,18 L271,17 L272,17 L272,16 L273,16 L273,15 L263,15 L263,16 L262,16 L262,17 L261,17 L261,18 L260,18 L260,19 L259,19 L259,20 L258,20 L258,21 L257,21 L257,22 L256,22 L256,23 L255,23 L255,24 L254,24 L254,25 L253,25 L253,26 L252,26 L252,27 L251,27 L251,28 L250,28 L250,29 L249,29 L249,30 L248,30 L248,15 Z M125,64 L125,67 L301,67 L301,64 Z " fill="#000000" transform="translate(0,0)"/>
<path d="M0,0 L1,0 L1,1 L3,1 L3,0 L4,0 L4,1 L6,1 L6,0 L10,0 L10,1 L20,1 L20,2 L22,2 L22,3 L23,3 L23,4 L24,4 L24,5 L25,5 L25,6 L26,6 L26,7 L27,7 L27,8 L28,8 L28,11 L29,11 L29,19 L28,19 L28,22 L27,22 L27,23 L26,23 L26,25 L25,25 L25,26 L23,26 L23,27 L22,27 L22,28 L20,28 L20,29 L16,29 L16,30 L9,30 L9,28 L10,28 L10,26 L11,26 L11,24 L12,24 L12,23 L17,23 L17,22 L19,22 L19,21 L20,21 L20,20 L21,20 L21,19 L22,19 L22,11 L21,11 L21,10 L20,10 L20,9 L19,9 L19,8 L17,8 L17,7 L6,7 L6,41 L-1,41 L-1,17 L0,17 L0,14 L-1,14 L-1,5 L0,5 L0,4 L-1,4 L-1,2 L0,2 Z " fill="#000000" transform="translate(81,15)"/>
<path d="M0,0 L27,0 L27,6 L7,6 L7,9 L6,9 L6,10 L7,10 L7,17 L9,17 L9,16 L13,16 L13,17 L14,17 L14,16 L22,16 L22,19 L23,19 L23,23 L7,23 L7,28 L6,28 L6,29 L7,29 L7,39 L6,39 L6,40 L0,40 Z " fill="#000000" transform="translate(11,16)"/>
<path d="M0,0 L7,0 L7,34 L11,34 L11,33 L14,33 L14,34 L16,34 L16,33 L19,33 L19,34 L20,34 L20,33 L22,33 L22,34 L23,34 L23,40 L0,40 Z " fill="#000000" transform="translate(41,16)"/>
<path d="M0,0 L7,0 L7,40 L0,40 Z " fill="#000000" transform="translate(69,16)"/>
</svg>
