<svg xmlns="http://www.w3.org/2000/svg" xmlns:xlink="http://www.w3.org/1999/xlink" width="160px" height="50px" viewBox="0 0 160 50" version="1.1">
<g id="surface1">
<path style=" stroke:none;fill-rule:nonzero;fill:#0ff0b0;fill-opacity:1;" d="M 62.929688 1.234375 C 94.421875 1.234375 125.910156 1.234375 158.355469 1.234375 C 158.355469 16.714844 158.355469 32.199219 158.355469 48.148438 C 126.863281 48.148438 95.375 48.148438 62.929688 48.148438 C 62.929688 32.667969 62.929688 17.183594 62.929688 1.234375 Z M 67.867188 8.023438 C 66.707031 10.882812 66.925781 14.167969 66.933594 17.402344 C 66.933594 18.007812 66.933594 18.613281 66.933594 19.238281 C 66.929688 20.519531 66.933594 21.796875 66.9375 23.078125 C 66.941406 25.035156 66.9375 26.992188 66.929688 28.949219 C 66.933594 30.191406 66.933594 31.4375 66.933594 32.679688 C 66.933594 33.265625 66.929688 33.851562 66.929688 34.453125 C 66.933594 35 66.933594 35.546875 66.9375 36.109375 C 66.9375 36.585938 66.9375 37.066406 66.9375 37.558594 C 67.058594 39.101562 67.289062 40.070312 67.867188 41.359375 C 69.273438 42.027344 69.273438 42.027344 70.746094 41.976562 C 71.628906 41.019531 71.933594 40.445312 72.15625 38.835938 C 72.167969 38.355469 72.179688 37.875 72.191406 37.378906 C 72.203125 36.855469 72.21875 36.332031 72.234375 35.792969 C 72.246094 34.976562 72.246094 34.976562 72.261719 34.144531 C 72.277344 33.59375 72.289062 33.042969 72.304688 32.472656 C 72.339844 31.113281 72.367188 29.753906 72.390625 28.394531 C 74.425781 28.089844 74.425781 28.089844 76.503906 27.777344 C 76.496094 28.550781 76.484375 29.324219 76.476562 30.121094 C 76.46875 31.140625 76.460938 32.160156 76.453125 33.179688 C 76.445312 33.6875 76.4375 34.199219 76.429688 34.722656 C 76.429688 35.214844 76.425781 35.707031 76.421875 36.21875 C 76.417969 36.667969 76.414062 37.121094 76.410156 37.589844 C 76.519531 39.125 76.753906 40.078125 77.328125 41.359375 C 78.730469 42.027344 78.730469 42.027344 80.207031 41.976562 C 81.125 41.003906 81.402344 40.4375 81.597656 38.769531 C 81.601562 38.242188 81.601562 37.71875 81.605469 37.175781 C 81.609375 36.578125 81.617188 35.980469 81.621094 35.367188 C 81.621094 34.722656 81.621094 34.078125 81.617188 33.414062 C 81.621094 32.75 81.621094 32.085938 81.625 31.402344 C 81.628906 30 81.625 28.597656 81.625 27.195312 C 81.621094 25.050781 81.632812 22.902344 81.644531 20.753906 C 81.644531 19.394531 81.644531 18.03125 81.644531 16.667969 C 81.648438 16.027344 81.652344 15.382812 81.65625 14.71875 C 81.667969 11.257812 81.667969 11.257812 80.683594 8.21875 C 79.785156 7.246094 79.785156 7.246094 78.507812 7.367188 C 77.277344 7.835938 77.277344 7.835938 76.84375 9.289062 C 76.40625 11.625 76.414062 13.839844 76.453125 16.242188 C 76.457031 16.699219 76.460938 17.15625 76.464844 17.628906 C 76.472656 18.746094 76.488281 19.867188 76.503906 20.988281 C 75.011719 20.988281 73.519531 20.988281 71.980469 20.988281 C 72 20.214844 72.019531 19.441406 72.039062 18.644531 C 72.050781 17.625 72.066406 16.605469 72.082031 15.585938 C 72.097656 15.078125 72.109375 14.566406 72.125 14.042969 C 72.167969 10.960938 72.167969 10.960938 71.226562 8.285156 C 69.945312 7.023438 69.296875 7.308594 67.867188 8.023438 Z M 89.253906 9.257812 C 88.449219 11.351562 88.085938 13.746094 87.609375 16.050781 C 87.394531 16.96875 87.175781 17.890625 86.957031 18.808594 C 85.699219 24.316406 84.914062 29.414062 84.910156 35.261719 C 84.910156 35.792969 84.90625 36.324219 84.90625 36.871094 C 84.921875 38.507812 84.921875 38.507812 85.140625 40.742188 C 86.464844 42.066406 86.894531 42.320312 88.433594 41.976562 C 89.308594 40.617188 89.644531 39.808594 89.785156 37.914062 C 89.765625 37.097656 89.765625 37.097656 89.742188 36.265625 C 89.71875 35.296875 89.691406 34.332031 89.664062 33.332031 C 91.703125 33.535156 93.738281 33.742188 95.835938 33.949219 C 95.902344 35.679688 95.96875 37.40625 96.035156 39.136719 C 96.105469 39.664062 96.175781 40.195312 96.246094 40.742188 C 97.566406 42.0625 98 42.378906 99.539062 41.976562 C 100.699219 40.171875 100.859375 38.484375 100.898438 36.074219 C 100.675781 27.214844 99.179688 16.425781 96.246094 8.640625 C 95.003906 7.207031 93.707031 7.242188 92.175781 7.183594 C 90.976562 7.496094 90.230469 8.171875 89.253906 9.257812 Z M 104.9375 10.996094 C 103.554688 14.101562 103.136719 16.816406 103.128906 20.523438 C 103.128906 21.242188 103.128906 21.964844 103.125 22.707031 C 103.128906 23.449219 103.132812 24.195312 103.136719 24.960938 C 103.132812 25.703125 103.128906 26.445312 103.125 27.210938 C 103.027344 33.898438 103.027344 33.898438 105.21875 39.390625 C 107.796875 42.046875 110.035156 42.492188 113.109375 41.976562 C 115.554688 40.886719 117.011719 38.890625 118.457031 35.800781 C 118.941406 33.628906 118.953125 31.910156 118.867188 29.628906 C 118.136719 28.273438 118.136719 28.273438 117.183594 28.253906 C 116.859375 28.261719 116.53125 28.269531 116.195312 28.28125 C 115.707031 28.285156 115.707031 28.285156 115.207031 28.292969 C 114.320312 28.316406 114.320312 28.316406 113.523438 29.011719 C 113.269531 30.28125 113.269531 30.28125 113.109375 31.75 C 112.789062 34.433594 112.789062 34.433594 111.875 35.800781 C 110.589844 35.878906 110.589844 35.878906 109.410156 35.800781 C 108.867188 32.09375 108.9375 28.390625 108.945312 24.613281 C 108.945312 23.945312 108.941406 23.277344 108.941406 22.585938 C 108.941406 21.941406 108.941406 21.300781 108.941406 20.636719 C 108.941406 20.050781 108.945312 19.46875 108.945312 18.867188 C 108.992188 17.421875 109.136719 16.195312 109.410156 14.816406 C 111.773438 14.121094 111.773438 14.121094 112.699219 14.816406 C 112.929688 16.046875 112.929688 16.046875 113.109375 17.554688 C 113.367188 19.839844 113.367188 19.839844 114.34375 21.605469 C 115.226562 21.800781 115.226562 21.800781 116.195312 21.757812 C 116.523438 21.761719 116.847656 21.765625 117.183594 21.769531 C 118.136719 21.722656 118.136719 21.722656 118.867188 20.371094 C 119.136719 16.511719 118.753906 13.671875 117.222656 10.492188 C 113.765625 6.277344 108.113281 5.679688 104.9375 10.996094 Z M 122.570312 9.257812 C 122.324219 10.671875 122.324219 10.671875 122.363281 12.273438 C 122.359375 12.886719 122.355469 13.496094 122.351562 14.128906 C 122.355469 14.785156 122.363281 15.445312 122.367188 16.125 C 122.367188 16.804688 122.367188 17.484375 122.363281 18.179688 C 122.367188 19.617188 122.371094 21.050781 122.378906 22.484375 C 122.390625 24.683594 122.386719 26.878906 122.382812 29.078125 C 122.382812 30.472656 122.386719 31.863281 122.390625 33.257812 C 122.390625 33.914062 122.390625 34.574219 122.390625 35.253906 C 122.394531 35.867188 122.398438 36.480469 122.40625 37.109375 C 122.40625 37.648438 122.410156 38.1875 122.410156 38.742188 C 122.605469 40.417969 122.90625 40.96875 123.804688 41.976562 C 124.832031 42.285156 124.832031 42.285156 125.859375 41.976562 C 126.714844 40.996094 127.054688 40.429688 127.273438 38.835938 C 127.285156 38.355469 127.292969 37.875 127.304688 37.378906 C 127.320312 36.855469 127.335938 36.332031 127.351562 35.792969 C 127.363281 34.976562 127.363281 34.976562 127.378906 34.144531 C 127.390625 33.59375 127.40625 33.042969 127.421875 32.472656 C 127.453125 31.113281 127.484375 29.753906 127.507812 28.394531 C 130.035156 28.757812 130.035156 28.757812 130.796875 29.011719 C 131.503906 31.132812 131.328125 33.707031 131.347656 36.058594 C 131.40625 38.136719 131.53125 39.332031 132.367188 41.019531 C 133.660156 42.394531 134.601562 42.226562 136.144531 41.976562 C 136.550781 41.566406 136.957031 41.160156 137.378906 40.742188 C 137.515625 39.171875 137.515625 39.171875 137.378906 37.65625 C 137.242188 37.449219 137.105469 37.246094 136.964844 37.035156 C 136.910156 35.867188 136.871094 34.695312 136.839844 33.527344 C 136.671875 30.152344 136.328125 28.503906 134.910156 25.925781 C 134.359375 24.894531 134.359375 24.894531 134.085938 23.457031 C 134.503906 21.757812 134.9375 20.242188 135.476562 18.632812 C 136.554688 15.394531 137.230469 12.988281 136.964844 9.257812 C 136.324219 7.933594 136.324219 7.933594 135.320312 7.40625 C 134.265625 7.261719 134.265625 7.261719 133.265625 8.023438 C 131.921875 10.691406 131.074219 13.425781 130.28125 16.511719 C 130.171875 16.925781 130.0625 17.339844 129.949219 17.769531 C 129.351562 19.929688 129.351562 19.929688 129.152344 22.222656 C 128.609375 22.019531 128.066406 21.816406 127.507812 21.605469 C 127.5 21.058594 127.5 21.058594 127.496094 20.5 C 127.472656 18.847656 127.4375 17.199219 127.402344 15.546875 C 127.398438 14.972656 127.390625 14.402344 127.386719 13.808594 C 127.371094 13.257812 127.359375 12.707031 127.347656 12.140625 C 127.335938 11.632812 127.328125 11.125 127.320312 10.601562 C 127.164062 9.164062 127.164062 9.164062 126.332031 8.152344 C 124.722656 6.796875 123.816406 7.429688 122.570312 9.257812 Z M 141.902344 9.257812 C 140.5 12.125 140.402344 14.46875 140.480469 17.945312 C 140.785156 20.890625 141.59375 22.277344 143.136719 24.074219 C 144.40625 25.382812 145.683594 26.636719 147 27.84375 C 148.070312 29.011719 148.484375 29.621094 148.894531 31.480469 C 148.972656 33.449219 148.972656 33.449219 148.894531 35.183594 C 148.484375 35.800781 148.484375 35.800781 147.722656 35.863281 C 146.878906 35.84375 146.035156 35.824219 145.191406 35.800781 C 145.140625 35.113281 145.089844 34.425781 145.039062 33.71875 C 144.925781 31.460938 144.925781 31.460938 143.957031 30.246094 C 142.519531 30.042969 142.519531 30.042969 141.078125 30.246094 C 140.09375 31.464844 140.09375 31.464844 140.101562 33.796875 C 140.15625 36.515625 140.6875 38.058594 141.902344 40.125 C 144.097656 42.597656 146.675781 42.445312 149.304688 41.976562 C 151.246094 41.070312 152.828125 39.78125 153.832031 37.035156 C 154.5 34.019531 154.480469 31.34375 153.832031 28.355469 C 152.234375 24.835938 150.097656 22.539062 147.6875 20.371094 C 146.246094 18.988281 146.066406 18.769531 145.550781 16.164062 C 145.605469 14.199219 145.605469 14.199219 146.015625 13.582031 C 146.972656 13.351562 147.933594 13.148438 148.894531 12.964844 C 148.945312 13.976562 148.945312 13.976562 148.996094 15.007812 C 149.171875 17.261719 149.171875 17.261719 150.027344 18.519531 C 151.210938 19.308594 151.792969 19.140625 153.007812 18.519531 C 153.992188 17.296875 153.992188 17.296875 154.011719 14.96875 C 153.976562 12.980469 153.75 11.832031 152.929688 10.261719 C 150.789062 7.261719 148.824219 7.167969 145.996094 7.253906 C 144.316406 7.464844 143.335938 7.929688 141.902344 9.257812 Z M 141.902344 9.257812 "/>
<path style=" stroke:none;fill-rule:nonzero;fill:#0ff0b0;fill-opacity:1;" d="M 5.359375 7.078125 C 5.949219 7.074219 5.949219 7.074219 6.550781 7.070312 C 6.960938 7.078125 7.367188 7.089844 7.789062 7.097656 C 8.195312 7.089844 8.601562 7.078125 9.023438 7.070312 C 10.921875 7.085938 12.023438 7.105469 13.652344 8.660156 C 14.019531 9.261719 14.019531 9.261719 14.394531 9.875 C 14.265625 11.652344 14.265625 11.652344 13.984375 13.582031 C 12.46875 15.09375 11.335938 14.957031 9.589844 14.890625 C 9.300781 14.886719 9.011719 14.878906 8.714844 14.875 C 8.003906 14.859375 7.292969 14.839844 6.582031 14.816406 C 6.582031 16.851562 6.582031 18.890625 6.582031 20.988281 C 7.148438 20.949219 7.71875 20.910156 8.304688 20.871094 C 9.972656 20.882812 11.085938 21.023438 12.339844 22.839844 C 12.554688 24.78125 12.625 25.933594 11.855469 27.578125 C 10.804688 28.722656 10.050781 28.578125 8.765625 28.511719 C 8.355469 28.492188 7.949219 28.476562 7.527344 28.460938 C 7.214844 28.4375 6.902344 28.417969 6.582031 28.394531 C 6.585938 28.742188 6.59375 29.085938 6.601562 29.441406 C 6.625 31.007812 6.640625 32.578125 6.65625 34.144531 C 6.667969 34.6875 6.679688 35.230469 6.6875 35.792969 C 6.695312 36.578125 6.695312 36.578125 6.703125 37.378906 C 6.710938 38.097656 6.710938 38.097656 6.722656 38.835938 C 6.542969 40.464844 6.21875 40.996094 5.347656 41.976562 C 4.113281 42.246094 4.113281 42.246094 2.878906 41.976562 C 1.75 40.214844 1.488281 38.957031 1.480469 36.546875 C 1.472656 35.960938 1.46875 35.375 1.464844 34.773438 C 1.464844 34.144531 1.464844 33.515625 1.46875 32.871094 C 1.464844 31.898438 1.464844 31.898438 1.460938 30.90625 C 1.457031 29.535156 1.457031 28.167969 1.460938 26.796875 C 1.464844 24.699219 1.453125 22.601562 1.441406 20.503906 C 1.441406 19.175781 1.441406 17.84375 1.441406 16.511719 C 1.4375 15.882812 1.433594 15.257812 1.425781 14.609375 C 1.457031 10.3125 1.457031 10.3125 2.351562 8.246094 C 3.445312 7.269531 4.089844 7.089844 5.359375 7.078125 Z M 5.359375 7.078125 "/>
<path style=" stroke:none;fill-rule:nonzero;fill:#0ff0b0;fill-opacity:1;" d="M 20.617188 7.445312 C 21.800781 8.023438 21.800781 8.023438 22.621094 9.875 C 22.722656 11.035156 22.722656 11.035156 22.714844 12.351562 C 22.714844 13.09375 22.714844 13.09375 22.714844 13.851562 C 22.710938 14.382812 22.707031 14.910156 22.703125 15.457031 C 22.703125 16.003906 22.699219 16.550781 22.699219 17.113281 C 22.695312 18.855469 22.683594 20.597656 22.671875 22.339844 C 22.667969 23.519531 22.664062 24.699219 22.664062 25.882812 C 22.652344 28.777344 22.640625 31.671875 22.621094 34.566406 C 22.960938 34.554688 23.296875 34.539062 23.644531 34.523438 C 24.308594 34.507812 24.308594 34.507812 24.988281 34.492188 C 25.425781 34.476562 25.863281 34.460938 26.316406 34.449219 C 27.542969 34.566406 28.207031 34.753906 29.203125 35.800781 C 29.613281 37.578125 29.613281 37.578125 29.613281 39.507812 C 29.074219 40.84375 29.074219 40.84375 27.96875 41.976562 C 26.449219 42.332031 24.953125 42.292969 23.417969 42.246094 C 22.796875 42.25 22.796875 42.25 22.164062 42.257812 C 19.132812 42.21875 19.132812 42.21875 18.253906 41.21875 C 17.515625 39.796875 17.527344 38.96875 17.519531 37.175781 C 17.515625 36.578125 17.507812 35.980469 17.503906 35.367188 C 17.503906 34.722656 17.507812 34.078125 17.507812 33.414062 C 17.507812 32.75 17.503906 32.085938 17.5 31.402344 C 17.5 30 17.5 28.597656 17.503906 27.195312 C 17.507812 25.050781 17.496094 22.902344 17.480469 20.753906 C 17.480469 19.394531 17.480469 18.03125 17.480469 16.667969 C 17.476562 16.027344 17.472656 15.382812 17.46875 14.71875 C 17.496094 10.292969 17.496094 10.292969 18.441406 8.214844 C 19.332031 7.40625 19.332031 7.40625 20.617188 7.445312 Z M 20.617188 7.445312 "/>
<path style=" stroke:none;fill-rule:nonzero;fill:#0ff0b0;fill-opacity:1;" d="M 36.453125 7.445312 C 37.839844 8.023438 37.839844 8.023438 38.664062 9.875 C 38.773438 11.207031 38.773438 11.207031 38.78125 12.765625 C 38.789062 13.644531 38.789062 13.644531 38.796875 14.539062 C 38.800781 15.488281 38.800781 15.488281 38.800781 16.453125 C 38.804688 17.101562 38.808594 17.75 38.808594 18.417969 C 38.8125 19.792969 38.816406 21.167969 38.816406 22.539062 C 38.816406 24.640625 38.832031 26.746094 38.847656 28.847656 C 38.851562 30.179688 38.851562 31.515625 38.851562 32.847656 C 38.859375 33.476562 38.863281 34.109375 38.871094 34.757812 C 38.851562 39.085938 38.851562 39.085938 37.921875 41.160156 C 37.019531 41.976562 37.019531 41.976562 35.527344 41.9375 C 34.140625 41.359375 34.140625 41.359375 33.316406 39.507812 C 33.207031 38.175781 33.207031 38.175781 33.195312 36.613281 C 33.191406 36.03125 33.1875 35.445312 33.179688 34.84375 C 33.179688 34.210938 33.179688 33.582031 33.179688 32.929688 C 33.175781 32.28125 33.171875 31.632812 33.167969 30.964844 C 33.164062 29.589844 33.164062 28.214844 33.164062 26.84375 C 33.160156 24.738281 33.148438 22.636719 33.132812 20.535156 C 33.128906 19.203125 33.128906 17.867188 33.125 16.535156 C 33.121094 15.90625 33.113281 15.273438 33.109375 14.625 C 33.128906 10.296875 33.128906 10.296875 34.058594 8.222656 C 34.960938 7.40625 34.960938 7.40625 36.453125 7.445312 Z M 36.453125 7.445312 "/>
<path style=" stroke:none;fill-rule:nonzero;fill:#0ff0b0;fill-opacity:1;" d="M 48.792969 7.253906 C 49.113281 7.242188 49.433594 7.226562 49.765625 7.214844 C 52.578125 7.1875 54.734375 8.078125 57.121094 10.417969 C 58.648438 12.710938 58.871094 14.703125 58.945312 17.863281 C 58.890625 21.386719 58.339844 23.589844 56.632812 26.082031 C 54.121094 28.535156 51.851562 28.550781 48.945312 28.394531 C 48.957031 29.019531 48.964844 29.644531 48.976562 30.289062 C 48.984375 31.125 48.988281 31.957031 48.996094 32.792969 C 49.007812 33.410156 49.007812 33.410156 49.019531 34.039062 C 49.035156 36.726562 48.78125 38.863281 48.125 41.359375 C 45.398438 42.128906 45.398438 42.128906 44.011719 40.742188 C 43.625 38.996094 43.546875 37.917969 43.539062 36.109375 C 43.535156 35.550781 43.535156 34.992188 43.53125 34.414062 C 43.53125 33.808594 43.53125 33.207031 43.53125 32.582031 C 43.527344 31.960938 43.527344 31.339844 43.527344 30.699219 C 43.523438 29.382812 43.523438 28.070312 43.523438 26.753906 C 43.523438 24.738281 43.515625 22.726562 43.507812 20.714844 C 43.503906 19.4375 43.503906 18.160156 43.503906 16.882812 C 43.5 16.277344 43.5 15.675781 43.496094 15.054688 C 43.496094 14.492188 43.496094 13.929688 43.5 13.351562 C 43.5 12.859375 43.496094 12.363281 43.496094 11.855469 C 43.613281 10.320312 43.875 9.332031 44.421875 8.023438 C 45.785156 7 47.292969 7.265625 48.792969 7.253906 Z M 48.945312 13.582031 C 48.945312 16.433594 48.945312 19.285156 48.945312 22.222656 C 51.238281 22.539062 51.238281 22.539062 53.265625 21.21875 C 54.070312 19.308594 54.128906 18.273438 53.882812 16.050781 C 53.316406 14.480469 53.316406 14.480469 52.238281 13.582031 C 51.101562 13.378906 50.09375 13.464844 48.945312 13.582031 Z M 48.945312 13.582031 "/>
<path style=" stroke:none;fill-rule:nonzero;fill:#0ff0b0;fill-opacity:1;" d="M 92.546875 14.199219 C 93.367188 14.816406 93.367188 14.816406 93.648438 15.886719 C 93.773438 16.566406 93.773438 16.566406 93.898438 17.261719 C 94.03125 18.003906 94.03125 18.003906 94.171875 18.757812 C 94.261719 19.277344 94.351562 19.796875 94.449219 20.332031 C 94.542969 20.847656 94.636719 21.367188 94.734375 21.898438 C 95.425781 25.734375 95.425781 25.734375 95.425781 27.160156 C 93.796875 27.160156 92.167969 27.160156 90.488281 27.160156 C 90.726562 22.625 91.601562 18.507812 92.546875 14.199219 Z M 92.546875 14.199219 "/>
</g>
</svg>